<svg width="16" height="16" viewBox="0 0 16 16" fill="none" xmlns="http://www.w3.org/2000/svg">
<path d="M1.92499 10.7352L2.97349 10.8957C3.74749 11.0142 4.30024 11.7072 4.24324 12.488L4.16599 13.5462C4.14349 13.8545 4.31149 14.1447 4.58974 14.279L5.36524 14.6525C5.64349 14.7867 5.97574 14.7365 6.20299 14.5272L6.98224 13.8072C7.55674 13.2762 8.44324 13.2762 9.01849 13.8072L9.79774 14.5272C10.025 14.7372 10.3565 14.7867 10.6355 14.6525L11.4125 14.2782C11.69 14.1447 11.8572 13.8552 11.8347 13.5477L11.7575 12.488C11.7005 11.7072 12.2532 11.0142 13.0272 10.8957L14.0757 10.7352C14.381 10.6887 14.627 10.46 14.696 10.1585L14.8872 9.31995C14.9562 9.01845 14.834 8.7057 14.579 8.5317L13.7037 7.93245C13.058 7.48995 12.8607 6.62595 13.2507 5.9472L13.7795 5.0277C13.9332 4.75995 13.9077 4.4247 13.715 4.1832L13.1787 3.51045C12.986 3.26895 12.665 3.1692 12.3695 3.25995L11.3555 3.57045C10.6062 3.79995 9.80749 3.4152 9.51949 2.68695L9.13099 1.7022C9.01699 1.4142 8.73874 1.2252 8.42899 1.22595L7.56949 1.2282C7.25974 1.22895 6.98224 1.41945 6.86974 1.7082L6.49099 2.6817C6.20599 3.41445 5.40349 3.8022 4.65199 3.5712L3.59599 3.2472C3.29974 3.1557 2.97724 3.2562 2.78449 3.4992L2.25199 4.1727C2.05924 4.41645 2.03599 4.75245 2.19274 5.0202L2.73349 5.94195C3.13174 6.62145 2.93674 7.4937 2.28724 7.93845L1.42249 8.53095C1.16749 8.7057 1.04524 9.01845 1.11424 9.3192L1.30549 10.1577C1.37374 10.46 1.61974 10.6887 1.92499 10.7352V10.7352Z" stroke="currentColor" stroke-width="1.5" stroke-linecap="round" stroke-linejoin="round"/>
<path d="M9.43702 6.5629C10.2305 7.3564 10.2305 8.6434 9.43702 9.4369C8.64352 10.2304 7.35652 10.2304 6.56302 9.4369C5.76952 8.6434 5.76952 7.3564 6.56302 6.5629C7.35652 5.7694 8.64352 5.7694 9.43702 6.5629Z" stroke="currentColor" stroke-width="1.5" stroke-linecap="round" stroke-linejoin="round"/>
</svg>
